<svg xmlns="http://www.w3.org/2000/svg" width="71" height="71" viewBox="0 0 71 71"><g><g><path fill="#084ac4" d="M49.806 10.282H45.01v15.99l11.577 6.907 2.398-3.934-9.178-5.372zm-1.599 28.78c-8.826 0-15.99-7.163-15.99-15.989s7.164-15.99 15.99-15.99c8.827 0 15.99 7.164 15.99 15.99s-7.163 15.99-15.99 15.99zM40.213 58.25a4.79 4.79 0 0 1-4.797-4.797 4.79 4.79 0 0 1 4.797-4.797 4.79 4.79 0 0 1 4.796 4.797 4.79 4.79 0 0 1-4.796 4.797zM6.635 39.063v-15.99h19.187c0 6.268 2.59 11.928 6.748 15.99zM11.43 58.25a4.79 4.79 0 0 1-4.796-4.797 4.79 4.79 0 0 1 4.796-4.797 4.79 4.79 0 0 1 4.797 4.797 4.79 4.79 0 0 1-4.797 4.797zM48.207.688c-7.656 0-14.421 3.85-18.454 9.71.009-.017.017-.035.034-.053-1.279-.064-2.622-.064-3.965-.064-14.135 0-25.583 1.6-25.583 12.792v31.98c0 2.813 1.247 5.34 3.198 7.099v5.692a3.207 3.207 0 0 0 3.198 3.198h3.197a3.207 3.207 0 0 0 3.198-3.198v-3.198h25.584v3.198a3.207 3.207 0 0 0 3.198 3.198h3.197a3.207 3.207 0 0 0 3.198-3.198v-5.692c1.951-1.76 3.198-4.286 3.198-7.1v-9.85c10.841-1.566 19.188-10.84 19.188-22.129 0-12.376-10.01-22.385-22.386-22.385z"/></g></g></svg>