<svg xmlns="http://www.w3.org/2000/svg" width="33" height="36" viewBox="0 0 33 36"><g><g><path fill="#084ac4" d="M12.908 5.333h8.01c1.77 0 3.196.517 4.281 1.552 1.085 1.034 1.627 2.387 1.627 4.055 0 1.669-.542 3.022-1.627 4.055-1.085 1.036-2.512 1.553-4.28 1.553h-8.011zM1.518 29.639h5.608v4.807c0 .234.075.426.225.575.15.151.342.226.576.226h4.18a.79.79 0 0 0 .564-.226.755.755 0 0 0 .237-.575V29.64H25.55a.779.779 0 0 0 .576-.225.779.779 0 0 0 .225-.576v-3.204a.777.777 0 0 0-.225-.575.779.779 0 0 0-.576-.226H12.908v-2.954h8.511c3.338 0 6.062-1.017 8.174-3.054 2.11-2.035 3.167-4.663 3.167-7.886 0-3.22-1.056-5.848-3.167-7.885C27.48 1.019 24.757 0 21.419 0H7.927a.782.782 0 0 0-.576.225.783.783 0 0 0-.226.576v15.746H1.518a.759.759 0 0 0-.576.238.792.792 0 0 0-.225.563v3.73c0 .234.075.425.225.576.15.15.342.225.576.225h5.608v2.954H1.518a.779.779 0 0 0-.576.226.779.779 0 0 0-.225.575v3.204c0 .234.075.426.225.576.15.151.342.225.576.225z"/></g></g></svg>