<svg xmlns="http://www.w3.org/2000/svg" width="31" height="35" viewBox="0 0 31 35"><g><g><path fill="#fff" d="M4.185 5.794h9.828c.368 0 .67.301.67.67v9.514c0 .368-.302.669-.67.669H4.185a.672.672 0 0 1-.67-.67V6.465c0-.369.301-.67.67-.67zM25.091 23.51a2.01 2.01 0 1 1 0 4.019 2.01 2.01 0 0 1 0-4.019zm-18.823 0a2.009 2.009 0 1 1 0 4.018 2.009 2.009 0 0 1 0-4.018zm10.137-7.58V6.51c0-.393.322-.716.716-.716h9.782c.394 0 .716.322.716.716v9.42a.718.718 0 0 1-.716.717H17.12a.719.719 0 0 1-.716-.716zm-4.773 9.542a.78.78 0 0 1 .777-.777h6.318a.78.78 0 0 1 .777.777.78.78 0 0 1-.777.778h-6.318a.78.78 0 0 1-.777-.778zm0-2.234a.78.78 0 0 1 .777-.777h6.318a.78.78 0 0 1 .777.777.78.78 0 0 1-.777.777h-6.318a.78.78 0 0 1-.777-.777zM6.384 3.236c0-.598.49-1.087 1.087-1.087h16.194c.598 0 1.087.49 1.087 1.087a1.09 1.09 0 0 1-1.087 1.087H7.47a1.09 1.09 0 0 1-1.087-1.087zm21.534 27.127a3.511 3.511 0 0 0 2.53-3.36V4.148A3.507 3.507 0 0 0 26.951.651H4.185A3.507 3.507 0 0 0 .688 4.148v22.855a3.51 3.51 0 0 0 2.753 3.416v1.251a2.835 2.835 0 0 0 2.827 2.827 2.835 2.835 0 0 0 2.827-2.827V30.5h13.169v1.17a2.836 2.836 0 0 0 2.827 2.827 2.835 2.835 0 0 0 2.827-2.827v-1.265-.042z"/></g></g></svg>