<svg xmlns="http://www.w3.org/2000/svg" width="29" height="36" viewBox="0 0 29 36"><g><g><path fill="#fff" d="M3.997 9.806h21.587c.35 0 .635.285.635.635v10.864c0 .349-.286.635-.635.635H3.997a.637.637 0 0 1-.635-.635V10.44c0-.35.286-.635.635-.635zM23.82 24.76a1.905 1.905 0 1 1 0 3.81 1.905 1.905 0 0 1 0-3.81zm-17.848 0a1.905 1.905 0 1 1 0 3.81 1.905 1.905 0 0 1 0-3.81zm20.529 7.419c1.381-.4 2.399-1.68 2.399-3.186V10.088a3.326 3.326 0 0 0-3.316-3.316h-6.076l4.123-4.122c.54-.54.54-1.424 0-1.964a1.394 1.394 0 0 0-1.964 0L15.58 6.772h-4.2l4.187-4.187a1.355 1.355 0 0 0 0-1.91 1.355 1.355 0 0 0-1.91 0l-5.95 5.95c-.047.046-.09.096-.128.147H3.997a3.326 3.326 0 0 0-3.316 3.316v18.906a3.329 3.329 0 0 0 2.61 3.24v1.186a2.688 2.688 0 0 0 2.681 2.68 2.688 2.688 0 0 0 2.681-2.68v-1.11H21.14v1.11a2.688 2.688 0 0 0 2.68 2.68 2.688 2.688 0 0 0 2.681-2.68v-1.2-.04z"/></g></g></svg>