<svg xmlns="http://www.w3.org/2000/svg" width="78" height="75" viewBox="0 0 78 75"><defs><clipPath id="ypdba"><path fill="#fff" d="M51.833 25.42l25.917 7.495v42.153l-25.917-7.494z"/></clipPath><clipPath id="ypdbb"><path fill="#fff" d="M51.833 25.42l-25.916 7.495v42.153l25.916-7.494z"/></clipPath><clipPath id="ypdbc"><path fill="#fff" d="M0 25.42l25.917 7.495v42.153L0 67.574z"/></clipPath></defs><g><g><g><path fill="none" stroke="#084ac4" stroke-miterlimit="50" stroke-width="6" d="M51.833 25.42v0l25.917 7.495v42.153l-25.917-7.494v0z" clip-path="url(&quot;#ypdba&quot;)"/></g><g><path fill="none" stroke="#084ac4" stroke-miterlimit="50" stroke-width="6" d="M51.833 25.42v0l-25.916 7.495v42.153l25.916-7.494v0z" clip-path="url(&quot;#ypdbb&quot;)"/></g><g><path fill="#084ac4" d="M54.02 16.834c0 4.218-3.433 7.65-7.65 7.65-4.22 0-7.651-3.432-7.651-7.65 0-4.219 3.432-7.65 7.65-7.65s7.65 3.431 7.65 7.65zm-7.65 29.195c.018-.012 1.88-1.252 4.23-3.286a47.818 47.818 0 0 0 3.821-3.686c1.439-1.559 2.67-3.132 3.657-4.675.989-1.543 1.899-3.315 2.706-5.264a46.874 46.874 0 0 0 1.73-4.984c.852-2.97 1.182-5.15 1.185-5.172a18.89 18.89 0 0 0-1.362-7.088 18.226 18.226 0 0 0-3.714-5.788 17.251 17.251 0 0 0-5.508-3.902A16.505 16.505 0 0 0 46.369.753c-2.34 0-4.609.481-6.745 1.43a17.251 17.251 0 0 0-5.509 3.903 18.226 18.226 0 0 0-3.714 5.788 18.89 18.89 0 0 0-1.362 7.088c.004.02.372 1.99 1.264 4.762a48.35 48.35 0 0 0 1.783 4.702 38.114 38.114 0 0 0 2.73 5.136c.988 1.543 2.21 3.159 3.633 4.802a62.303 62.303 0 0 0 3.768 3.969c2.312 2.237 4.134 3.682 4.152 3.696z"/></g><g><path fill="none" stroke="#084ac4" stroke-miterlimit="50" stroke-width="6" d="M0 25.42v0l25.917 7.495v42.153L0 67.574v0z" clip-path="url(&quot;#ypdbc&quot;)"/></g><g><path fill="none" stroke="#084ac4" stroke-linecap="round" stroke-miterlimit="50" stroke-width="3" d="M46.37 50.713v0L26.228 63.827v0L11.397 45.561v0l-9.836 7.65v0"/></g></g></g></svg>