<svg xmlns="http://www.w3.org/2000/svg" width="78" height="70" viewBox="0 0 78 70"><g><g><path fill="#084ac4" d="M15.428 8.571V1.714h53.42v6.857zM0 5.142A5.136 5.136 0 0 1 5.142 0a5.136 5.136 0 0 1 5.143 5.142 5.135 5.135 0 0 1-5.143 5.143A5.135 5.135 0 0 1 0 5.142zm15.428 24v-6.857h42.997v6.857zM0 25.712a5.136 5.136 0 0 1 5.142-5.142 5.136 5.136 0 0 1 5.143 5.143 5.135 5.135 0 0 1-5.143 5.142A5.135 5.135 0 0 1 0 25.713zm15.428 24v-6.857H78.05v6.857zM0 46.283c0-2.81 2.297-5.143 5.142-5.143 2.846 0 5.143 2.332 5.143 5.143 0 2.812-2.332 5.143-5.143 5.143S0 49.095 0 46.283zm15.428 22.034V61.46h27.997v6.857zM0 64.889a5.135 5.135 0 0 1 5.142-5.143 5.135 5.135 0 0 1 5.143 5.143 5.135 5.135 0 0 1-5.143 5.142A5.135 5.135 0 0 1 0 64.89z"/></g></g></svg>