<svg id="Group_454" data-name="Group 454" xmlns="http://www.w3.org/2000/svg" width="189" height="189" viewBox="0 0 189 189">
  <path id="Path_237" data-name="Path 237" d="M170.16,34.6A15.689,15.689,0,0,0,155.25,24H129V3H66V24H39.75A15.789,15.789,0,0,0,24.84,34.6L3,97.5v84A10.531,10.531,0,0,0,13.5,192H24a10.531,10.531,0,0,0,10.5-10.5V171h126v10.5A10.531,10.531,0,0,0,171,192h10.5A10.531,10.531,0,0,0,192,181.5v-84ZM43.425,45H151.47l10.92,31.5H32.5ZM171,150H24V101.07l1.26-3.57H169.845L171,101.07Z" transform="translate(-3 -3)" fill="#fff"/>
  <circle id="Ellipse_38" data-name="Ellipse 38" cx="15.75" cy="15.75" r="15.75" transform="translate(31.5 105.001)" fill="#fff"/>
  <circle id="Ellipse_39" data-name="Ellipse 39" cx="15.75" cy="15.75" r="15.75" transform="translate(126 105.001)" fill="#fff"/>
  <path id="Path_274" data-name="Path 274" d="M170.16,34.6A15.689,15.689,0,0,0,155.25,24H129V3H66V24H39.75A15.789,15.789,0,0,0,24.84,34.6L3,97.5v84A10.531,10.531,0,0,0,13.5,192H24a10.531,10.531,0,0,0,10.5-10.5V171h126v10.5A10.531,10.531,0,0,0,171,192h10.5A10.531,10.531,0,0,0,192,181.5v-84ZM43.425,45H151.47l10.92,31.5H32.5ZM171,150H24V101.07l1.26-3.57H169.845L171,101.07Z" transform="translate(-3 -3)" fill="#fff"/>
</svg>
