<svg xmlns="http://www.w3.org/2000/svg" width="240" height="240" viewBox="0 0 240 240">
  <g id="Group_146" data-name="Group 146" transform="translate(-3310 3106)">
    <g id="Слой_x0020_1" transform="translate(3356 -3098)">
      <path id="Path_272" data-name="Path 272" d="M62.016,46.964C26.814,48.032,0,54.762,0,83.959v88.266a32.554,32.554,0,0,0,32.522,32.522L21.837,215.436a4.646,4.646,0,0,0,3.345,7.9h98.4a4.6,4.6,0,0,0,3.254-7.9l-10.684-10.689a32.552,32.552,0,0,0,32.517-32.517l.005-88.271c0-28.94-26.341-35.806-61.079-36.965l31.277-31.277c.05-.05.1-.106.151-.156h13.289a7.8,7.8,0,0,0,7.783-7.783h0A7.8,7.8,0,0,0,132.308,0H16.357A7.8,7.8,0,0,0,8.579,7.778h0a7.8,7.8,0,0,0,7.778,7.783H30.618c.05.05.1.106.151.156L62.016,46.964Zm12.8-6.055,25.348-25.348h-50.7ZM32.522,186.164A13.936,13.936,0,1,1,46.46,172.23,13.92,13.92,0,0,1,32.522,186.164Zm32.522-55.749H18.583V83.959h46.46Zm51.1,55.749a13.939,13.939,0,1,1,13.934-13.939A13.92,13.92,0,0,1,116.148,186.164Zm13.934-55.749H83.627V83.959h46.455Z" transform="translate(0 0)" fill="#fefefe" fill-rule="evenodd"/>
    </g>
    <rect id="Rectangle_68" data-name="Rectangle 68" width="240" height="240" transform="translate(3310 -3106)" fill="none"/>
  </g>
</svg>
