<svg xmlns="http://www.w3.org/2000/svg" width="37" height="41" viewBox="0 0 37 41"><g><g><path fill="#fff" d="M4.794 6.71h11.783c.441 0 .802.36.802.802v11.406a.805.805 0 0 1-.802.803H4.794a.806.806 0 0 1-.803-.803V7.512c0-.441.361-.802.803-.802zm25.064 21.239a2.409 2.409 0 1 1 0 4.817 2.409 2.409 0 0 1 0-4.817zm-22.567 0a2.408 2.408 0 1 1 0 4.817 2.408 2.408 0 0 1 0-4.817zm12.153-9.087V7.568c0-.472.387-.858.859-.858H32.03c.472 0 .859.386.859.858v11.294a.861.861 0 0 1-.86.859H20.304a.862.862 0 0 1-.86-.859zm-5.722 11.44c0-.513.42-.932.932-.932h7.574c.513 0 .932.419.932.932 0 .512-.42.932-.932.932h-7.574a.935.935 0 0 1-.932-.932zm0-2.679c0-.513.42-.932.932-.932h7.574c.513 0 .932.419.932.931v.001c0 .513-.42.932-.932.932h-7.574a.934.934 0 0 1-.932-.932zM7.431 3.643c0-.717.586-1.303 1.303-1.303h19.414c.717 0 1.303.586 1.303 1.303 0 .716-.586 1.303-1.303 1.303H8.734A1.307 1.307 0 0 1 7.43 3.643zm25.816 32.521a4.21 4.21 0 0 0 3.033-4.028v-27.4A4.204 4.204 0 0 0 32.088.544H4.794A4.204 4.204 0 0 0 .602 4.736v27.4c0 2 1.42 3.684 3.3 4.096v1.5a3.4 3.4 0 0 0 3.39 3.39 3.4 3.4 0 0 0 3.389-3.39v-1.404h15.787v1.404a3.4 3.4 0 0 0 3.39 3.39 3.4 3.4 0 0 0 3.39-3.39v-1.517l-.001-.05z"/></g></g></svg>