<svg xmlns="http://www.w3.org/2000/svg" width="39" height="49" viewBox="0 0 39 49"><g><g><path fill="#fff" d="M5.29 13.316h28.77c.466 0 .846.38.846.846v14.48c0 .465-.38.846-.846.846H5.29a.849.849 0 0 1-.847-.846v-14.48c0-.465.38-.846.846-.846zM31.71 33.25a2.539 2.539 0 1 1 0 5.077 2.539 2.539 0 0 1 0-5.077zm-23.788 0a2.539 2.539 0 1 1 0 5.077 2.539 2.539 0 0 1 0-5.077zm27.36 9.887c1.841-.533 3.198-2.238 3.198-4.246V13.692c0-2.43-1.989-4.42-4.42-4.42h-8.098l5.495-5.493c.72-.72.72-1.898 0-2.618a1.857 1.857 0 0 0-2.618 0l-8.112 8.112H15.13l5.58-5.58c.7-.7.7-1.846 0-2.546-.7-.7-1.845-.7-2.546 0l-7.93 7.93c-.062.061-.119.127-.17.196H5.29a4.432 4.432 0 0 0-4.419 4.42V38.89c0 2.108 1.496 3.884 3.48 4.318v1.581a3.583 3.583 0 0 0 3.572 3.573 3.583 3.583 0 0 0 3.573-3.573v-1.48h16.642v1.48a3.583 3.583 0 0 0 3.573 3.573 3.583 3.583 0 0 0 3.573-3.573V43.19l-.001-.054z"/></g></g></svg>